<svg xmlns="http://www.w3.org/2000/svg" version="1.1" xmlns:xlink="http://www.w3.org/1999/xlink" width="200" height="200"><svg xmlns="http://www.w3.org/2000/svg" version="1.1" xmlns:xlink="http://www.w3.org/1999/xlink" viewBox="0 0 200 200"><rect width="200" height="200" fill="url('#gradient')"></rect><defs><linearGradient id="SvgjsLinearGradient1001" gradientTransform="rotate(45 0.5 0.5)"><stop offset="0%" stop-color="#328c78"></stop><stop offset="100%" stop-color="#28819e"></stop></linearGradient></defs><g><g fill="#f6ebbc" transform="matrix(2.842329615861215,0,0,2.842329615861215,40.94923508690783,120.19912607734236)" stroke="#dba545" stroke-width="0.2"><path d="M12.96-14.22L12.96 0L9.55 0L9.55-5.94L4.50-5.94L4.50 0L1.07 0L1.07-14.22L4.50-14.22L4.50-8.57L9.55-8.57L9.55-14.22L12.96-14.22ZM17.06-7.47L17.09-7.49Q16.51-8.31 16.19-9.05Q15.86-9.79 15.86-10.59L15.86-10.59Q15.86-12.30 16.97-13.36Q18.09-14.42 19.88-14.42L19.88-14.42Q21.49-14.42 22.55-13.44Q23.60-12.46 23.60-11.01L23.60-11.01Q23.60-9.19 21.60-7.78L21.60-7.78L20.86-7.27L23.05-4.76Q23.58-5.83 23.58-7.11L23.58-7.11L26.35-7.11Q26.35-4.23 25.02-2.49L25.02-2.49L27.19 0L23.52 0L22.85-0.75Q22.03-0.26 21.18-0.03Q20.32 0.21 19.25 0.21L19.25 0.21Q17.14 0.21 15.87-0.90Q14.60-2.01 14.60-3.82L14.60-3.82Q14.60-4.80 15.10-5.61Q15.61-6.41 17.06-7.47L17.06-7.47ZM19.46-2.33L19.46-2.33Q20.32-2.33 21.10-2.73L21.10-2.73L18.54-5.64L18.46-5.59Q17.90-4.90 17.90-4.04L17.90-4.04Q17.90-3.33 18.35-2.83Q18.80-2.33 19.46-2.33ZM18.70-10.63L18.70-10.63Q18.70-9.94 19.44-8.96L19.44-8.96L20.10-9.38Q20.55-9.67 20.75-9.98Q20.96-10.29 20.96-10.77L20.96-10.77Q20.96-11.22 20.64-11.55Q20.33-11.88 19.87-11.88L19.87-11.88Q19.33-11.88 19.01-11.54Q18.70-11.19 18.70-10.63ZM40.48-14.22L40.48 0L37.07 0L32.03-8.85L32.03 0L28.60 0L28.60-14.22L32.03-14.22L37.06-5.37L37.06-14.22L40.48-14.22Z"></path></g></g></svg><style>@media (prefers-color-scheme: light) { :root { filter: none; } }
@media (prefers-color-scheme: dark) { :root { filter: none; } }
</style></svg>